<svg width="16" height="14" viewBox="0 0 16 14" fill="none" xmlns="http://www.w3.org/2000/svg">
    <path d="M1.99999 4.1429H0.285677C0.208308 4.1429 0.141353 4.17104 0.0848119 4.22762C0.0282394 4.28422 0 4.35121 0 4.42861V6.14289C0 6.22023 0.0282394 6.28734 0.0848119 6.34379C0.141385 6.40017 0.208308 6.4286 0.285677 6.4286H1.99999C2.07736 6.4286 2.14432 6.4003 2.20086 6.34379C2.25743 6.28721 2.28567 6.22023 2.28567 6.14289V4.42861C2.28567 4.35121 2.2574 4.28422 2.20086 4.22762C2.14432 4.17114 2.07736 4.1429 1.99999 4.1429Z" fill="#045DA7"/>
    <path d="M1.99999 11.0001H0.285677C0.208308 11.0001 0.141353 11.0281 0.0848119 11.0847C0.0282394 11.1413 0 11.2082 0 11.2856V13C0 13.0773 0.0282394 13.1442 0.0848119 13.2008C0.141385 13.2575 0.208308 13.2857 0.285677 13.2857H1.99999C2.07736 13.2857 2.14432 13.2574 2.20086 13.2008C2.25743 13.1443 2.28567 13.0773 2.28567 13V11.2856C2.28567 11.2082 2.2574 11.1413 2.20086 11.0847C2.14432 11.0283 2.07736 11.0001 1.99999 11.0001Z" fill="#045DA7"/>
    <path d="M1.99999 7.57129H0.285677C0.208308 7.57129 0.141353 7.59975 0.0848119 7.65616C0.0282706 7.71258 0 7.77979 0 7.85706V9.57131C0 9.6488 0.0282394 9.71579 0.0848119 9.7723C0.141385 9.82884 0.208308 9.85696 0.285677 9.85696H1.99999C2.07736 9.85696 2.14432 9.82894 2.20086 9.7723C2.25743 9.71579 2.28567 9.6488 2.28567 9.57131V7.85706C2.28567 7.77979 2.2574 7.7128 2.20086 7.65616C2.14432 7.59965 2.07736 7.57129 1.99999 7.57129Z" fill="#045DA7"/>
    <path d="M1.99999 0.714264H0.285677C0.208308 0.714264 0.141353 0.742503 0.0848119 0.799076C0.0282706 0.855648 0 0.922604 0 0.999973V2.71426C0 2.79166 0.0282394 2.85858 0.0848119 2.91515C0.141385 2.97173 0.208308 2.99996 0.285677 2.99996H1.99999C2.07736 2.99996 2.14432 2.97182 2.20086 2.91515C2.25743 2.85858 2.28567 2.79166 2.28567 2.71426V0.999973C2.28567 0.922572 2.2574 0.855648 2.20086 0.799076C2.14432 0.74266 2.07736 0.714264 1.99999 0.714264Z" fill="#045DA7"/>
    <path d="M15.7142 11.0001H3.71427C3.6369 11.0001 3.56994 11.0281 3.5134 11.0847C3.45683 11.1413 3.42859 11.2082 3.42859 11.2857V13.0001C3.42859 13.0773 3.45683 13.1442 3.5134 13.2008C3.56997 13.2575 3.6368 13.2857 3.71427 13.2857H15.7142C15.7917 13.2857 15.8586 13.2575 15.9152 13.2008C15.9718 13.1442 16 13.0773 16 13.0001V11.2857C16 11.2082 15.9717 11.1413 15.9152 11.0847C15.8586 11.0283 15.7917 11.0001 15.7142 11.0001Z" fill="#045DA7"/>
    <path d="M15.7142 7.57129H3.71427C3.6369 7.57129 3.56994 7.59975 3.5134 7.65616C3.45686 7.71258 3.42859 7.77979 3.42859 7.85706V9.57131C3.42859 9.6488 3.45683 9.71579 3.5134 9.7723C3.56997 9.82884 3.6368 9.85696 3.71427 9.85696H15.7142C15.7917 9.85696 15.8586 9.82894 15.9152 9.7723C15.9718 9.71579 16 9.6488 16 9.57131V7.85706C16 7.77979 15.9717 7.7128 15.9152 7.65616C15.8586 7.59975 15.7917 7.57129 15.7142 7.57129Z" fill="#045DA7"/>
    <path d="M15.9152 0.799076C15.8586 0.742628 15.7917 0.714264 15.7142 0.714264H3.71427C3.6369 0.714264 3.56994 0.742503 3.5134 0.799076C3.45686 0.855648 3.42859 0.922572 3.42859 0.999973V2.71426C3.42859 2.79166 3.45683 2.85858 3.5134 2.91515C3.56997 2.97173 3.6368 2.99996 3.71427 2.99996H15.7142C15.7917 2.99996 15.8586 2.97182 15.9152 2.91515C15.9718 2.85858 16 2.79166 16 2.71426V0.999973C15.9999 0.922604 15.9717 0.855648 15.9152 0.799076Z" fill="#045DA7"/>
    <path d="M15.7142 4.1429H3.71427C3.6369 4.1429 3.56994 4.17104 3.5134 4.22762C3.45683 4.28422 3.42859 4.35121 3.42859 4.42861V6.14289C3.42859 6.22023 3.45683 6.28721 3.5134 6.34379C3.56997 6.40017 3.6368 6.4286 3.71427 6.4286H15.7142C15.7917 6.4286 15.8586 6.4003 15.9152 6.34379C15.9718 6.28721 16 6.22023 16 6.14289V4.42861C16 4.35121 15.9717 4.28422 15.9152 4.22762C15.8586 4.17114 15.7917 4.1429 15.7142 4.1429Z" fill="#045DA7"/>
</svg>
