<svg width="6" height="16" viewBox="0 0 6 16" fill="none" xmlns="http://www.w3.org/2000/svg">
    <path d="M3.00061 4.28089C1.82088 4.28089 0.867188 3.32299 0.867188 2.1401C0.867188 0.958252 1.82088 0 3.00061 0C4.17754 0 5.13229 0.957901 5.13229 2.1401C5.13229 3.32264 4.17719 4.28089 3.00061 4.28089Z" fill="#647A8C"/>
    <path d="M3.00096 10.1403C1.82123 10.1403 0.867188 9.18241 0.867188 7.99952C0.867188 6.81802 1.82088 5.85872 3.00061 5.85872C4.17754 5.85872 5.13228 6.81767 5.13299 7.99952C5.13228 9.18312 4.17684 10.1403 3.00096 10.1403Z" fill="#647A8C"/>
    <path d="M3.00097 16C1.82123 16 0.867188 15.0421 0.867188 13.8592C0.867188 12.6763 1.82088 11.7188 3.00061 11.7188C4.17754 11.7181 5.13229 12.6767 5.13229 13.8592C5.13229 15.0418 4.17684 16 3.00097 16Z" fill="#647A8C"/>
</svg>
