<svg width="10" height="12" viewBox="0 0 10 12" fill="none" xmlns="http://www.w3.org/2000/svg">
    <path d="M8.94302 3.33334H1.0571C0.818458 3.33334 0.625 3.51431 0.625 3.73759V10.0532C0.625 11.1267 1.55841 12 2.70559 12H7.29433C8.44161 12 9.375 11.1267 9.375 10.0532V3.73759C9.375 3.51437 9.18165 3.33334 8.94302 3.33334ZM3.96132 9.56508C3.96132 9.83935 3.72371 10.0617 3.43046 10.0617C3.1374 10.0617 2.89961 9.83935 2.89961 9.56508V5.76826C2.89961 5.49394 3.13734 5.27161 3.43046 5.27161C3.72365 5.27161 3.96132 5.49399 3.96132 5.76826V9.56508ZM7.10038 9.56508C7.10038 9.83935 6.86271 10.0617 6.56953 10.0617C6.27646 10.0617 6.03867 9.83935 6.03867 9.56508V5.76826C6.03867 5.49394 6.2764 5.27161 6.56953 5.27161C6.86271 5.27161 7.10038 5.49399 7.10038 5.76826V9.56508Z" fill="#045DA7"/>
    <path d="M8.64331 0.580362H6.68968V0.439447C6.68968 0.197134 6.45268 0 6.16137 0H3.83868C3.54737 0 3.3103 0.197134 3.3103 0.439447V0.580362H1.35671C0.608638 0.580362 0 1.08655 0 1.70875V2.43233C0 2.56173 0.126125 2.66667 0.281775 2.66667H9.71831C9.87388 2.66667 10 2.56173 10 2.43233V1.70875C10 1.08656 9.39144 0.580362 8.64331 0.580362Z" fill="#045DA7"/>
</svg>
